<?xml version="1.0" standalone="no"?>
<!DOCTYPE svg PUBLIC "-//W3C//DTD SVG 20010904//EN"
 "http://www.w3.org/TR/2001/REC-SVG-20010904/DTD/svg10.dtd">
<svg version="1.0" xmlns="http://www.w3.org/2000/svg"
 width="70.000000pt" height="70.000000pt" viewBox="0 0 70.000000 70.000000"
 preserveAspectRatio="xMidYMid meet">
<metadata>
Created by potrace 1.14, written by Peter Selinger 2001-2017
</metadata>
<g transform="translate(0.000000,70.000000) scale(0.100000,-0.100000)"
fill="#000000" stroke="none">
<path d="M46 595 c-2 -7 10 -61 27 -121 26 -90 31 -126 30 -206 l0 -98 31 0
32 0 0 107 c0 97 4 119 35 211 19 56 32 107 28 114 -4 6 -18 8 -33 4 -25 -6
-27 -9 -21 -49 5 -42 -13 -126 -29 -130 -5 -1 -15 21 -24 48 -11 40 -12 57 -2
82 6 18 9 37 6 42 -8 13 -75 9 -80 -4z"/>
<path d="M245 454 c-24 -51 -36 -148 -24 -207 11 -60 23 -77 55 -77 26 0 40
20 65 90 l16 45 6 -50 c8 -59 33 -103 50 -86 6 6 15 11 19 11 12 0 10 -74 -3
-107 l-11 -28 -18 40 -17 40 -12 -24 c-10 -19 -11 -32 -2 -62 10 -33 16 -39
39 -39 56 0 80 89 83 310 3 165 -1 182 -44 178 -26 -2 -36 -11 -50 -41 -10
-20 -22 -58 -26 -85 -8 -50 -13 -43 -26 33 -17 98 -67 128 -100 59z m205 -66
c-1 -57 -13 -135 -24 -145 -13 -14 -19 10 -17 69 3 112 41 182 41 76z m-155
-59 c0 -77 -3 -94 -15 -94 -11 0 -16 14 -18 55 -4 74 6 142 21 137 8 -2 12
-34 12 -98z"/>
<path d="M553 453 c-44 -78 -52 -217 -17 -271 l16 -24 23 22 23 22 13 -23 12
-23 18 23 c21 26 26 81 7 81 -10 0 -13 29 -13 112 l0 113 -30 3 c-26 3 -34 -2
-52 -35z m42 -112 c-4 -45 -13 -88 -21 -98 -13 -16 -15 -7 -12 77 4 98 12 130
30 112 6 -6 8 -41 3 -91z"/>
</g>
</svg>
